RBDS018runT45_grf
version=1
nRows=27
nColumns=19
inDegrees=no
endheader
time	ground_force_r_vx	ground_force_r_vy	ground_force_r_vz	ground_force_r_px	ground_force_r_py	ground_force_r_pz	ground_force_r_mx	ground_force_r_my	ground_force_r_mz	ground_force_l_vx	ground_force_l_vy	ground_force_l_vz	ground_force_l_px	ground_force_l_py	ground_force_l_pz	ground_force_l_mx	ground_force_l_my	ground_force_l_mz
      7.49900000	   -295.49765896	   2009.68206184	     13.70715857	      2.33011247	      0.00000000	      1.01905949	      0.00000000	      5.69041702	      0.00000000	      0.00000000	      0.00000000	      0.00000000	      0.00000000	      0.00000000	      0.00000000	      0.00000000	      0.00000000	      0.00000000
      7.50000000	   -294.17090367	   2027.05586289	     14.39332876	      2.32658612	      0.00000000	      1.01856798	      0.00000000	      5.90058187	      0.00000000	      0.00000000	      0.00000000	      0.00000000	      0.00000000	      0.00000000	      0.00000000	      0.00000000	      0.00000000	      0.00000000
      7.50100000	   -291.98499356	   2040.88244781	     14.87701895	      2.32302770	      0.00000000	      1.01817062	      0.00000000	      6.09214133	      0.00000000	      0.00000000	      0.00000000	      0.00000000	      0.00000000	      0.00000000	      0.00000000	      0.00000000	      0.00000000	      0.00000000
      7.50200000	   -289.79908345	   2054.70903272	     15.36070914	      2.31946927	      0.00000000	      1.01777327	      0.00000000	      6.28370079	      0.00000000	      0.00000000	      0.00000000	      0.00000000	      0.00000000	      0.00000000	      0.00000000	      0.00000000	      0.00000000	      0.00000000
      7.50300000	   -287.61317334	   2068.53561764	     15.84439933	      2.31591085	      0.00000000	      1.01737592	      0.00000000	      6.47526025	      0.00000000	      0.00000000	      0.00000000	      0.00000000	      0.00000000	      0.00000000	      0.00000000	      0.00000000	      0.00000000	      0.00000000
      7.50400000	   -284.86130548	   2080.14896128	     16.15741771	      2.31232859	      0.00000000	      1.01703949	      0.00000000	      6.64699541	      0.00000000	      0.00000000	      0.00000000	      0.00000000	      0.00000000	      0.00000000	      0.00000000	      0.00000000	      0.00000000	      0.00000000
      7.50500000	   -281.82645874	   2090.65568427	     16.38510018	      2.30873441	      0.00000000	      1.01673352	      0.00000000	      6.80881842	      0.00000000	      0.00000000	      0.00000000	      0.00000000	      0.00000000	      0.00000000	      0.00000000	      0.00000000	      0.00000000	      0.00000000
      7.50600000	   -278.79161201	   2101.16240727	     16.61278266	      2.30514023	      0.00000000	      1.01642755	      0.00000000	      6.97064144	      0.00000000	      0.00000000	      0.00000000	      0.00000000	      0.00000000	      0.00000000	      0.00000000	      0.00000000	      0.00000000	      0.00000000
      7.50700000	   -275.48079663	   2110.64438742	     16.74290213	      2.30153282	      0.00000000	      1.01615063	      0.00000000	      7.11944815	      0.00000000	      0.00000000	      0.00000000	      0.00000000	      0.00000000	      0.00000000	      0.00000000	      0.00000000	      0.00000000	      0.00000000
      7.50800000	   -271.61804395	   2118.07688190	     16.67789557	      2.29789894	      0.00000000	      1.01593179	      0.00000000	      7.24222225	      0.00000000	      0.00000000	      0.00000000	      0.00000000	      0.00000000	      0.00000000	      0.00000000	      0.00000000	      0.00000000	      0.00000000
      7.50900000	   -267.75529127	   2125.50937638	     16.61288902	      2.29426506	      0.00000000	      1.01571294	      0.00000000	      7.36499636	      0.00000000	      0.00000000	      0.00000000	      0.00000000	      0.00000000	      0.00000000	      0.00000000	      0.00000000	      0.00000000	      0.00000000
      7.51000000	   -263.89253860	   2132.94187086	     16.54788247	      2.29063118	      0.00000000	      1.01549410	      0.00000000	      7.48777047	      0.00000000	      0.00000000	      0.00000000	      0.00000000	      0.00000000	      0.00000000	      0.00000000	      0.00000000	      0.00000000	      0.00000000
      7.51100000	   -259.23332190	   2137.55257814	     16.17252257	      2.28695339	      0.00000000	      1.01535680	      0.00000000	      7.56440998	      0.00000000	      0.00000000	      0.00000000	      0.00000000	      0.00000000	      0.00000000	      0.00000000	      0.00000000	      0.00000000	      0.00000000
      7.51200000	   -254.57410520	   2142.16328542	     15.79716267	      2.28327561	      0.00000000	      1.01521949	      0.00000000	      7.64104949	      0.00000000	      0.00000000	      0.00000000	      0.00000000	      0.00000000	      0.00000000	      0.00000000	      0.00000000	      0.00000000	      0.00000000
      7.51300000	   -249.91488850	   2146.77399270	     15.42180277	      2.27959782	      0.00000000	      1.01508219	      0.00000000	      7.71768901	      0.00000000	      0.00000000	      0.00000000	      0.00000000	      0.00000000	      0.00000000	      0.00000000	      0.00000000	      0.00000000	      0.00000000
      7.51400000	   -244.75225557	   2149.66966195	     14.84100208	      2.27588782	      0.00000000	      1.01499475	      0.00000000	      7.76049872	      0.00000000	      0.00000000	      0.00000000	      0.00000000	      0.00000000	      0.00000000	      0.00000000	      0.00000000	      0.00000000	      0.00000000
      7.51500000	   -239.33791454	   2151.70781218	     14.15748099	      2.27216172	      0.00000000	      1.01493224	      0.00000000	      7.78639353	      0.00000000	      0.00000000	      0.00000000	      0.00000000	      0.00000000	      0.00000000	      0.00000000	      0.00000000	      0.00000000	      0.00000000
      7.51600000	   -233.92357350	   2153.74596240	     13.47395990	      2.26843562	      0.00000000	      1.01486973	      0.00000000	      7.81228835	      0.00000000	      0.00000000	      0.00000000	      0.00000000	      0.00000000	      0.00000000	      0.00000000	      0.00000000	      0.00000000	      0.00000000
      7.51700000	   -228.27440646	   2155.00583007	     12.69490920	      2.26469191	      0.00000000	      1.01482959	      0.00000000	      7.82058539	      0.00000000	      0.00000000	      0.00000000	      0.00000000	      0.00000000	      0.00000000	      0.00000000	      0.00000000	      0.00000000	      0.00000000
      7.51800000	   -222.15558742	   2154.70913262	     11.72479929	      2.26091300	      0.00000000	      1.01483419	      0.00000000	      7.79368689	      0.00000000	      0.00000000	      0.00000000	      0.00000000	      0.00000000	      0.00000000	      0.00000000	      0.00000000	      0.00000000	      0.00000000
      7.51900000	   -216.03676837	   2154.41243517	     10.75468937	      2.25713409	      0.00000000	      1.01483879	      0.00000000	      7.76678839	      0.00000000	      0.00000000	      0.00000000	      0.00000000	      0.00000000	      0.00000000	      0.00000000	      0.00000000	      0.00000000	      0.00000000
      7.52000000	   -209.91794933	   2154.11573772	      9.78457946	      2.25335517	      0.00000000	      1.01484339	      0.00000000	      7.73988989	      0.00000000	      0.00000000	      0.00000000	      0.00000000	      0.00000000	      0.00000000	      0.00000000	      0.00000000	      0.00000000	      0.00000000
      7.52100000	   -203.15396497	   2151.70389308	      8.56715638	      2.24951900	      0.00000000	      1.01490670	      0.00000000	      7.66064481	      0.00000000	      0.00000000	      0.00000000	      0.00000000	      0.00000000	      0.00000000	      0.00000000	      0.00000000	      0.00000000	      0.00000000
      7.52200000	   -196.38998060	   2149.29204844	      7.34973330	      2.24568283	      0.00000000	      1.01497001	      0.00000000	      7.58139973	      0.00000000	      0.00000000	      0.00000000	      0.00000000	      0.00000000	      0.00000000	      0.00000000	      0.00000000	      0.00000000	      0.00000000
      7.52300000	   -189.62599624	   2146.88020380	      6.13231022	      2.24184666	      0.00000000	      1.01503331	      0.00000000	      7.50215465	      0.00000000	      0.00000000	      0.00000000	      0.00000000	      0.00000000	      0.00000000	      0.00000000	      0.00000000	      0.00000000	      0.00000000
      7.52400000	   -182.47677554	   2143.18960922	      4.78620670	      2.23796953	      0.00000000	      1.01512985	      0.00000000	      7.38984254	      0.00000000	      0.00000000	      0.00000000	      0.00000000	      0.00000000	      0.00000000	      0.00000000	      0.00000000	      0.00000000	      0.00000000
      7.52500000	   -175.13493666	   2138.85963966	      3.37576295	      2.23407192	      0.00000000	      1.01524299	      0.00000000	      7.26099692	      0.00000000	      0.00000000	      0.00000000	      0.00000000	      0.00000000	      0.00000000	      0.00000000	      0.00000000	      0.00000000	      0.00000000
